<svg xmlns="http://www.w3.org/2000/svg" xmlns:xlink="http://www.w3.org/1999/xlink" version="1.1" x="0px" y="0px" viewBox="0 0 100 100" enable-background="new 0 0 100 100" xml:space="preserve"><path d="M90,30c-2.762,0-5,2.238-5,5v11.25H59.267C57.782,42.586,54.195,40,50,40c-4.196,0-7.782,2.587-9.267,6.25H15V35  c0-2.762-2.238-5-5-5s-5,2.238-5,5v30c0,2.762,2.238,5,5,5s5-2.238,5-5V53.75h25.734C42.218,57.413,45.804,60,50,60  c4.195,0,7.781-2.587,9.266-6.25H85V65c0,2.762,2.238,5,5,5s5-2.238,5-5V35C95,32.238,92.762,30,90,30z"></path></svg>